General

Format                           : Flash Video
File size                        : 64.5 MiB
Duration                         : 21mn 31s
Overall bit rate                 : 419 Kbps
Tagged date                      : UTC 2012-03-03 02:02:52

Video

Format                           : AVC
Format/Info                      : Advanced Video Codec
Format profile                   : High@L4.1
Format settings, CABAC           : Yes
Format settings, ReFrames        : 4 frames
Codec ID                         : 7
Duration                         : 21mn 30s
Bit rate                         : 326 Kbps
Width                            : 640 pixels
Height                           : 424 pixels
Display aspect ratio             : 3:2
Frame rate mode                  : Constant
Frame rate                       : 58.000 fps
Color space                      : YUV
Chroma subsampling               : 4:2:0
Bit depth                        : 8 bits
Scan type                        : Progressive
Bits/(Pixel*Frame)               : 0.021
Stream size                      : 51.0 MiB (79%)

Audio

Format                           : AAC
Format/Info                      : Advanced Audio Codec
Format profile                   : LC
Codec ID                         : 10
Duration                         : 21mn 31s
Bit rate                         : 80.7 Kbps
Channel(s)                       : 2 channels
Channel positions                : Front: L R
Sampling rate                    : 44.1 KHz
Compression mode                 : Lossy
Stream size                      : 13.0 MiB (20%)

Nice Quality...
Download and Enjoy...Keep Seeding..